<svg width="199" height="182" fill="none" xmlns="http://www.w3.org/2000/svg">
  <path
    fill-rule="evenodd"
    clip-rule="evenodd"
    d="M99.197.472c-30.03 0-54.098 8.294-72.201 24.884C8.999 41.946 0 63.906 0 91.236c0 27.118 9.052 49.024 27.155 65.72C45.26 173.652 69.273 182 99.197 182s53.884-8.348 71.881-25.044c18.104-16.696 27.156-38.602 27.156-65.72 0-27.33-8.999-49.29-26.996-65.88C153.241 8.766 129.227.472 99.197.472Zm-17.913 120.72 17.83-17.829 18.773 18.773a6.999 6.999 0 0 0 9.899 0l12.728-12.727a7 7 0 0 0 0-9.9L117.19 76.185a8.025 8.025 0 0 0-.998-1.214l-11.314-11.314a7.995 7.995 0 0 0-1.594-1.237 7.007 7.007 0 0 0-7.881-.138 8 8 0 0 0-1.838 1.375L58.657 98.565a8 8 0 0 0 0 11.314l11.314 11.313a7.999 7.999 0 0 0 11.313 0Z"
    fill="#2563EB"
  />
</svg>
