<svg width="784" height="182" fill="none" xmlns="http://www.w3.org/2000/svg">
  <g clip-path="url(#a)">
    <path
      fill-rule="evenodd"
      clip-rule="evenodd"
      d="M99.197.472c-30.03 0-54.098 8.294-72.201 24.884C8.999 41.946 0 63.906 0 91.236c0 27.118 9.052 49.024 27.155 65.72C45.26 173.652 69.273 182 99.197 182s53.884-8.348 71.881-25.044c18.104-16.696 27.156-38.602 27.156-65.72 0-27.33-8.999-49.29-26.996-65.88C153.241 8.766 129.227.472 99.197.472Zm-17.913 120.72 17.83-17.829 18.773 18.773a6.999 6.999 0 0 0 9.899 0l12.728-12.727a7 7 0 0 0 0-9.9L117.19 76.185a8.025 8.025 0 0 0-.998-1.214l-11.314-11.314a7.995 7.995 0 0 0-1.594-1.237 7.007 7.007 0 0 0-7.881-.138 8 8 0 0 0-1.838 1.375L58.657 98.565a8 8 0 0 0 0 11.314l11.314 11.313a7.999 7.999 0 0 0 11.313 0Z"
      fill="#2563EB"
    />
    <path
      d="M283.945 152.876c-7.839 0-15.372-1.317-22.599-3.95-7.227-2.695-12.861-5.91-16.903-9.646-2.266-2.083-3.491-4.042-3.675-5.88-.184-1.837.796-4.072 2.94-6.706l4.501-5.42c1.347-1.654 2.756-2.695 4.226-3.124 1.531-.49 2.909-.52 4.134-.091 1.286.428 2.695 1.163 4.226 2.204 7.594 5.512 15.372 8.268 23.334 8.268 2.817 0 4.991-.49 6.522-1.47 1.531-.979 2.297-2.357 2.297-4.134 0-.857-.245-1.653-.735-2.388-.49-.796-1.041-1.439-1.654-1.929-.612-.551-1.531-1.103-2.755-1.654-1.225-.612-2.267-1.072-3.124-1.378-.796-.306-1.99-.735-3.583-1.286-3.062-.919-5.512-1.684-7.349-2.297-1.837-.612-4.165-1.469-6.982-2.572-2.756-1.102-5.022-2.174-6.798-3.215-1.715-1.041-3.583-2.358-5.604-3.95-2.021-1.593-3.613-3.277-4.777-5.053-1.164-1.776-2.143-3.858-2.94-6.247-.735-2.388-1.102-4.96-1.102-7.717 0-9.125 3.491-16.352 10.473-21.68 6.982-5.39 16.352-8.084 28.111-8.084 6.614 0 13.167 1.01 19.659 3.031 6.553 2.021 11.545 4.471 14.974 7.35 2.266 1.96 3.461 3.858 3.583 5.695.123 1.838-.888 4.195-3.031 7.074l-3.951 4.869c-3.123 4.042-7.135 4.563-12.034 1.562-5.818-4.165-12.096-6.247-18.833-6.247-2.572 0-4.593.49-6.063 1.47-1.47.918-2.205 2.143-2.205 3.674 0 .919.276 1.746.827 2.48.613.674 1.623 1.348 3.032 2.022a68.632 68.632 0 0 0 4.134 1.745c1.347.429 3.307 1.102 5.879 2.021a415.47 415.47 0 0 1 6.615 2.205c4.225 1.654 7.839 3.338 10.84 5.053a45.249 45.249 0 0 1 8.36 6.155c2.572 2.327 4.501 5.083 5.787 8.268 1.286 3.123 1.929 6.675 1.929 10.656 0 9.37-3.644 16.781-10.932 22.232-7.227 5.389-16.811 8.084-28.754 8.084ZM406.844 137.442c.429.858.643 1.685.643 2.481 0 .796-.092 1.439-.276 1.929-.183.49-.581 1.072-1.194 1.745-.612.613-1.072 1.042-1.378 1.287-.245.245-.765.643-1.562 1.194-6.185 4.409-14.147 6.614-23.885 6.614-4.838 0-9.431-.735-13.78-2.205a36.62 36.62 0 0 1-11.667-6.338c-3.491-2.818-6.277-6.615-8.36-11.392-2.021-4.838-3.031-10.381-3.031-16.628V78.923h-8.268c-2.756 0-4.9-.765-6.431-2.296-1.531-1.531-2.297-3.644-2.297-6.339v-6.43c0-2.818.735-4.961 2.205-6.431 1.531-1.47 3.706-2.205 6.523-2.205h8.268V33.358c0-2.572.704-4.502 2.113-5.788 1.47-1.286 3.644-2.235 6.522-2.848l15.066-2.664c2.695-.55 4.808 0 6.339 1.654 1.531 1.592 2.297 3.858 2.297 6.798v24.712h18.649c2.756 0 4.868.766 6.338 2.297 1.531 1.47 2.297 3.582 2.297 6.338v6.431c0 2.695-.766 4.808-2.297 6.339-1.531 1.531-3.644 2.297-6.338 2.297h-18.649v33.806c0 4.287.949 7.411 2.848 9.371 1.959 1.96 4.532 2.939 7.716 2.939 2.205 0 4.777-.888 7.717-2.664 3.736-2.449 6.614-1.5 8.636 2.848l5.236 12.218ZM480.319 55.773c2.021.674 3.46 1.593 4.317 2.756.919 1.103 1.041 2.879.368 5.328l-3.583 14.148c-1.409 4.9-4.042 6.584-7.901 5.053-4.225-1.287-7.502-1.93-9.829-1.93-5.451 0-9.677 1.654-12.678 4.961-2.939 3.307-4.409 7.809-4.409 13.504v41.983c0 2.695-.735 4.808-2.205 6.339-1.47 1.531-3.552 2.297-6.247 2.297h-15.617c-2.695 0-4.777-.766-6.247-2.297-1.47-1.531-2.205-3.644-2.205-6.339V63.857c0-2.694.735-4.807 2.205-6.338 1.47-1.531 3.552-2.297 6.247-2.297h9.921c2.695 0 4.777.766 6.247 2.297 1.531 1.53 2.297 3.644 2.297 6.338v4.502c7.043-9.8 15.617-14.699 25.722-14.699 4.716 0 9.248.705 13.597 2.113ZM538.543 152.692c-15.188 0-27.743-4.685-37.665-14.055-9.921-9.432-14.882-21.252-14.882-35.461 0-14.208 4.961-25.998 14.882-35.368 9.922-9.432 22.477-14.148 37.665-14.148 10.045 0 19.047 2.144 27.009 6.43 8.023 4.288 14.27 10.198 18.741 17.731 4.471 7.533 6.706 15.985 6.706 25.355 0 9.371-2.235 17.822-6.706 25.355-4.471 7.533-10.718 13.443-18.741 17.731-7.962 4.287-16.964 6.43-27.009 6.43Zm-14.698-33.99c3.919 4.103 8.819 6.155 14.698 6.155 5.88 0 10.718-2.052 14.515-6.155 3.859-4.104 5.788-9.279 5.788-15.526s-1.929-11.422-5.788-15.525c-3.797-4.103-8.635-6.155-14.515-6.155-5.879 0-10.779 2.052-14.698 6.155-3.859 4.103-5.788 9.278-5.788 15.525s1.929 11.422 5.788 15.526ZM680.764 55.222c2.817 0 4.899.827 6.246 2.48 1.348 1.593 1.47 3.644.368 6.155l-36.104 78.638c-1.224 2.695-2.909 4.808-5.052 6.339-2.144 1.531-4.532 2.296-7.166 2.296h-1.561c-5.145 0-9.218-2.878-12.219-8.635L587.06 63.857c-1.286-2.51-1.225-4.562.184-6.155 1.408-1.653 3.552-2.48 6.43-2.48h15.25c2.634 0 4.747.704 6.339 2.113 1.592 1.408 3.001 3.583 4.226 6.522l18.832 43.603 18.374-43.603c2.143-5.757 5.665-8.635 10.564-8.635h13.505ZM714.927 110.158c.735 6.063 3.399 10.81 7.992 14.239 4.594 3.43 10.105 5.145 16.536 5.145 6.859 0 13.566-2.266 20.119-6.798 1.286-.98 2.388-1.684 3.307-2.113.919-.429 1.929-.521 3.032-.276 1.102.245 2.235.98 3.399 2.205l6.43 6.614c3.246 3.124 3.369 6.309.368 9.555-4.104 4.348-9.922 7.778-17.455 10.289-7.533 2.449-15.188 3.674-22.966 3.674-15.128 0-27.622-4.624-37.482-13.872-9.799-9.309-14.698-21.251-14.698-35.828 0-9.37 2.143-17.79 6.43-25.263 4.287-7.533 10.289-13.412 18.006-17.638 7.717-4.287 16.444-6.43 26.182-6.43 7.349 0 14.055 1.194 20.119 3.582 6.124 2.389 11.269 5.665 15.433 9.83 4.348 4.348 7.717 9.493 10.105 15.433a48.213 48.213 0 0 1 3.675 18.557c0 3.43-.612 5.819-1.837 7.166-1.164 1.286-3.43 1.929-6.798 1.929h-59.897Zm18.465-34.082c-5.022 0-9.156 1.439-12.402 4.317-3.185 2.879-5.114 6.83-5.788 11.851h36.655c-.735-4.532-2.48-8.176-5.236-10.932-3.491-3.49-7.901-5.236-13.229-5.236Z"
      fill="#111827"
    />
  </g>
  <defs>
    <clipPath id="a"><path fill="#fff" d="M0 0h784v182H0z" /></clipPath>
  </defs>
</svg>
